<svg id="well-pharmacy-logo" xmlns="http://www.w3.org/2000/svg" width="98.639" height="41.654" viewBox="0 0 98.639 41.654">
  <path id="Path_18" data-name="Path 18" d="M154.881,9.168a3.268,3.268,0,0,0-6.536,0V40.78a3.268,3.268,0,0,0,6.536,0Zm-9.745,0a3.268,3.268,0,0,0-6.536,0V40.78a3.268,3.268,0,0,0,6.536,0Z" transform="translate(-56.242 -2.394)" fill="#15aa99"/>
  <path id="Path_19" data-name="Path 19" d="M108.87,42.264a3.045,3.045,0,0,0-2.02.951,8.039,8.039,0,0,1-13.726-3.744H90.33a2.88,2.88,0,0,1-2.971-2.852v-.238a11.45,11.45,0,0,0-.059,1.426,13.667,13.667,0,0,0,23.709,9.21,3.047,3.047,0,0,0,.772-2.02,2.769,2.769,0,0,0-2.912-2.733m-7.9-18.064A13.638,13.638,0,0,0,87.419,36.262a2.9,2.9,0,0,1,2.912-2.5h3.8a7.855,7.855,0,0,1,13.667,0h3.744a2.968,2.968,0,0,1,2.971,2.912v-.357A13.6,13.6,0,0,0,100.967,24.2" transform="translate(-35.425 -9.82)" fill="#7fba2a"/>
  <path id="Path_20" data-name="Path 20" d="M111.755,40.2H98.088a7.717,7.717,0,0,0-1.01,5.764H115.5a2.624,2.624,0,0,1-2.615-2.555,8,8,0,0,0-1.129-3.209" transform="translate(-39.321 -16.313)" fill="#7fba2a"/>
  <path id="Path_21" data-name="Path 21" d="M94.174,40.2h-3.8A2.968,2.968,0,0,0,87.4,43.112a2.881,2.881,0,0,0,2.971,2.852h2.793a15.658,15.658,0,0,1-.119-1.664,8.172,8.172,0,0,1,1.129-4.1m17.47,0H107.9a7.694,7.694,0,0,1,1.129,3.209,2.624,2.624,0,0,0,2.615,2.555h.475a2.628,2.628,0,0,0,.891-.3,2.708,2.708,0,0,0,1.545-2.5,2.857,2.857,0,0,0-2.912-2.971" transform="translate(-35.466 -16.313)" fill="#009a3a"/>
  <path id="Path_22" data-name="Path 22" d="M5.407,9H2.852A2.9,2.9,0,0,0,0,11.912a2.853,2.853,0,0,0,2.852,2.852h2.5V9m8.319,0h-2.5v5.764h2.5a2.853,2.853,0,0,0,2.852-2.852A2.9,2.9,0,0,0,13.667,9" transform="translate(0 -3.652)" fill="#15aa99"/>
  <path id="Path_23" data-name="Path 23" d="M14.8,11.112H9.1v2.5a2.852,2.852,0,1,0,5.7,0v-2.5M11.952,0A2.853,2.853,0,0,0,9.1,2.852v2.5h5.764v-2.5A2.944,2.944,0,0,0,11.952,0" transform="translate(-3.693)" fill="#7fba2a"/>
  <path id="Path_24" data-name="Path 24" d="M9.1,9h5.764v5.764H9.1Z" transform="translate(-3.693 -3.652)" fill="#009a3a"/>
  <path id="Path_25" data-name="Path 25" d="M31.98,47.077,35.01,38.7l-4.516-12.36a3.253,3.253,0,0,0-3.03-2.139,3.731,3.731,0,0,0-1.129.178,3.29,3.29,0,0,0-1.961,4.159l7.546,20.738v.059a3.281,3.281,0,0,1,.059-2.258m7.546-18.539a3.275,3.275,0,0,1,.059-2.377.207.207,0,0,1-.059.119L35.01,38.639l3.03,8.378a3.119,3.119,0,0,1-.059,2.317c0-.059,0-.059.059-.119l4.516-12.36Z" transform="translate(-9.816 -9.82)" fill="#0080a4"/>
  <path id="Path_26" data-name="Path 26" d="M40.205,48.6l-3.03,8.378A3.331,3.331,0,0,0,38.3,60.722c.119.059.178.119.3.178a1.779,1.779,0,0,0,.475.238,3.731,3.731,0,0,0,1.129.178A4.587,4.587,0,0,0,41.1,61.2c.059,0,.178-.059.238-.059h.059a3.479,3.479,0,0,0,1.01-.594,3.324,3.324,0,0,0,.891-3.506L40.205,48.6" transform="translate(-15.011 -19.721)" fill="#005571"/>
  <path id="Path_27" data-name="Path 27" d="M59.616,48.5l3.03-8.378L58.13,27.759V27.7a3.123,3.123,0,0,1,0,2.317L55.1,38.4l4.516,12.36v.059a3.855,3.855,0,0,1,0-2.317" transform="translate(-22.359 -11.24)" fill="#00a9d5"/>
  <path id="Path_28" data-name="Path 28" d="M52.9,24.2a3.009,3.009,0,0,0-2.139.832,3.216,3.216,0,0,0-.891,3.506l3.03,8.378,3.03-8.378a3.24,3.24,0,0,0-1.961-4.159A2.878,2.878,0,0,0,52.9,24.2" transform="translate(-20.155 -9.82)" fill="#005571"/>
  <path id="Path_29" data-name="Path 29" d="M76.575,24.378a3.46,3.46,0,0,0-1.129-.178,3.253,3.253,0,0,0-3.03,2.139L67.9,38.7l3.03,8.378a3.119,3.119,0,0,1-.059,2.317c0-.059,0-.059.059-.119l7.546-20.738a3.21,3.21,0,0,0-1.9-4.159" transform="translate(-27.553 -9.82)" fill="#00a9d5"/>
  <path id="Path_30" data-name="Path 30" d="M65.688,48.6l-3.03,8.378a3.244,3.244,0,0,0,1.129,3.744c.119.059.178.119.3.178a2.111,2.111,0,0,0,.535.238,3.46,3.46,0,0,0,1.129.178,4.587,4.587,0,0,0,.891-.119c.059,0,.178-.059.238-.059h.059a3.479,3.479,0,0,0,1.01-.594,3.324,3.324,0,0,0,.891-3.506L65.688,48.6" transform="translate(-25.341 -19.721)" fill="#0085b0"/>
</svg>
