<svg xmlns="http://www.w3.org/2000/svg" width="44" height="44" viewBox="0 0 53.971 61.11">
  <g id="Group_164" data-name="Group 164" transform="translate(-1301.335 -524.667)">
    <path id="Path_127" data-name="Path 127" d="M1345.993,533.595a26,26,0,0,0-35.342,0,22.789,22.789,0,0,0,0,33.462l17.658,16.719,17.658-16.719A22.768,22.768,0,0,0,1345.993,533.595Z" fill="#014c6b" stroke="#014c6b" stroke-linecap="round" stroke-linejoin="round" stroke-miterlimit="10" stroke-width="4"/>
    <path id="Path_128" data-name="Path 128" d="M1347.22,556.167h-4.9v-4.819a4.629,4.629,0,0,0-4.562-4.681h-.236a4.643,4.643,0,0,0-4.562,4.681v4.791h-4.931a4.651,4.651,0,0,0-4.7,4.571v.22a4.651,4.651,0,0,0,4.7,4.571h4.9v5.039a4.626,4.626,0,0,0,4.562,4.681h.236a4.647,4.647,0,0,0,4.562-4.681V565.5h4.9a4.651,4.651,0,0,0,4.7-4.571v-.22A4.64,4.64,0,0,0,1347.22,556.167Z" transform="translate(-9.289 -9.292)" fill="none" stroke="#cfebf6" stroke-linecap="round" stroke-linejoin="round" stroke-miterlimit="10" stroke-width="4" fill-rule="evenodd"/>
  </g>
</svg>
